<?xml version="1.0" encoding="iso-8859-1"?>
<!-- Generator: Adobe Illustrator 16.0.0, SVG Export Plug-In . SVG Version: 6.00 Build 0)  -->
<!DOCTYPE svg PUBLIC "-//W3C//DTD SVG 1.1//EN" "http://www.w3.org/Graphics/SVG/1.1/DTD/svg11.dtd">
<svg version="1.1" id="Capa_1" xmlns="http://www.w3.org/2000/svg" xmlns:xlink="http://www.w3.org/1999/xlink" x="0px" y="0px"
	 width="612px" height="612px" viewBox="0 0 612 612" style="enable-background:new 0 0 612 612;" xml:space="preserve">
<g>
	<g>
		<path d="M270.593,511.981c-0.829-0.086-2.343-0.086-3.086-0.2c-12.031-1.258-21.604-6.858-27.663-15.603L138.083,348.208
			c-11.688-17.032-7.401-40.407,9.573-52.096c16.717-11.459,40.922-6.801,52.209,9.659l65.87,95.789l143.312-280.967
			c9.202-18.003,32.777-25.662,50.838-16.432c8.944,4.544,15.632,12.345,18.746,21.947c3.115,9.63,2.344,19.861-2.257,28.862
			L304.743,491.492c-0.6,1.2-2.229,3.372-3.201,4.458c0.057-0.086,0.086-0.086,0.086-0.086c0.028,0-0.515,0.657-1.115,1.343
			c-1.543,2.029-3.572,4.486-6.373,6.688c-1,0.972-2.2,1.942-3.229,2.543c-1.115,0.857-3.258,1.629-4.401,2
			c-2.315,1.086-3.915,1.743-5.63,2.172C278.224,511.438,274.594,511.981,270.593,511.981z M270.165,483.434
			c0.143,0,0.286,0,0.429,0v-0.029c1.058,0,1.857-0.086,2.515-0.285c0.2-0.086,1.629-0.687,2.686-1.115
			c0.085-0.085,0.171-0.171,0.257-0.229c0.2-0.257,2.829-3.2,3-3.457c0.114-0.258,0.886-1.2,1.771-2.087l170.089-334.262
			c1.114-2.172,1.314-4.658,0.543-7.001c-0.743-2.343-2.372-4.229-4.544-5.344c-4.63-2.343-10.145-0.428-12.431,3.973
			L280.281,435.938c-2.286,4.458-6.744,7.43-11.802,7.744c-4.943,0.429-9.859-2-12.688-6.172l-79.472-115.594
			c-2.772-4-8.402-5.058-12.459-2.257c-4.001,2.743-5.001,8.287-2.201,12.373l101.733,147.914c1.8,2.629,4.658,3.343,6.715,3.486
			C270.107,483.434,270.136,483.434,270.165,483.434L270.165,483.434L270.165,483.434z" fill="green"/>
		<path d="M511.981,612h-35.492c-7.888,0-14.289-6.401-14.289-14.288c0-7.888,6.401-14.289,14.289-14.289h35.492
			c39.407,0,71.441-32.034,71.441-71.441V476.86c0-7.887,6.401-14.288,14.289-14.288c7.887,0,14.288,6.401,14.288,14.288v35.121
			C612,567.135,567.135,612,511.981,612z M135.683,612h-35.664C44.866,612,0,567.135,0,511.981V476.86
			c0-7.887,6.401-14.288,14.289-14.288s14.288,6.401,14.288,14.288v35.121c0,39.407,32.035,71.441,71.442,71.441h35.664
			c7.887,0,14.288,6.401,14.288,14.289C149.971,605.599,143.57,612,135.683,612z M476.489,559.59c-7.888,0-14.289-6.4-14.289-14.288
			c0-7.887,6.401-14.288,14.289-14.288c31.091,0,54.524-23.262,54.524-54.153c0-7.887,6.401-14.288,14.288-14.288
			c7.888,0,14.288,6.401,14.288,14.288C559.59,523.27,523.098,559.59,476.489,559.59z M135.683,559.59
			c-46.723,0-83.301-36.32-83.301-82.729c0-7.887,6.401-14.288,14.288-14.288s14.289,6.401,14.289,14.288
			c0,30.863,23.519,54.153,54.725,54.153c7.887,0,14.288,6.401,14.288,14.288C149.971,553.189,143.57,559.59,135.683,559.59z
			 M597.712,151.314c-7.888,0-14.289-6.401-14.289-14.289v-37.007c0-39.407-32.034-71.442-71.441-71.442h-35.492
			c-7.888,0-14.289-6.401-14.289-14.288S468.602,0,476.489,0h35.492C567.135,0,612,44.866,612,100.019v37.007
			C612,144.913,605.599,151.314,597.712,151.314z M545.302,151.314c-7.887,0-14.288-6.401-14.288-14.289
			c0-31.463-23.947-56.096-54.524-56.096c-7.888,0-14.289-6.401-14.289-14.288s6.401-14.289,14.289-14.289
			c46.608,0,83.101,37.207,83.101,84.673C559.59,144.913,553.189,151.314,545.302,151.314z M66.669,151.314
			c-7.887,0-14.288-6.401-14.288-14.289c0-47.466,36.578-84.673,83.301-84.673c7.887,0,14.288,6.401,14.288,14.289
			s-6.401,14.288-14.288,14.288c-30.691,0-54.725,24.633-54.725,56.096C80.958,144.913,74.557,151.314,66.669,151.314z
			 M14.289,151.314C6.401,151.314,0,144.913,0,137.025v-37.007C0,44.866,44.866,0,100.019,0h35.664
			c7.887,0,14.288,6.401,14.288,14.289s-6.401,14.288-14.288,14.288h-35.664c-39.407,0-71.442,32.035-71.442,71.442v37.007
			C28.577,144.913,22.176,151.314,14.289,151.314z" fill="green"/>
	</g>
</g>
<g>
</g>
<g>
</g>
<g>
</g>
<g>
</g>
<g>
</g>
<g>
</g>
<g>
</g>
<g>
</g>
<g>
</g>
<g>
</g>
<g>
</g>
<g>
</g>
<g>
</g>
<g>
</g>
<g>
</g>
</svg>
